<svg width="493" height="88" viewBox="0 0 493 88" fill="none" xmlns="http://www.w3.org/2000/svg">
<path d="M151.88 23.1095C151.88 25.3495 151.34 27.4495 150.26 29.4095C149.22 31.3695 147.56 32.9495 145.28 34.1495C143.04 35.3495 140.2 35.9495 136.76 35.9495H129.74V52.0295H121.34V10.1495H136.76C140 10.1495 142.76 10.7095 145.04 11.8295C147.32 12.9495 149.02 14.4895 150.14 16.4495C151.3 18.4095 151.88 20.6295 151.88 23.1095ZM136.4 29.1695C138.72 29.1695 140.44 28.6495 141.56 27.6095C142.68 26.5295 143.24 25.0295 143.24 23.1095C143.24 19.0295 140.96 16.9895 136.4 16.9895H129.74V29.1695H136.4Z" fill="white"/>
<path d="M179.444 52.0295L170.204 35.7095H166.244V52.0295H157.844V10.1495H173.564C176.804 10.1495 179.564 10.7295 181.844 11.8895C184.124 13.0095 185.824 14.5495 186.944 16.5095C188.104 18.4295 188.684 20.5895 188.684 22.9895C188.684 25.7495 187.884 28.2495 186.284 30.4895C184.684 32.6895 182.304 34.2095 179.144 35.0495L189.164 52.0295H179.444ZM166.244 29.4095H173.264C175.544 29.4095 177.244 28.8695 178.364 27.7895C179.484 26.6695 180.044 25.1295 180.044 23.1695C180.044 21.2495 179.484 19.7695 178.364 18.7295C177.244 17.6495 175.544 17.1095 173.264 17.1095H166.244V29.4095Z" fill="white"/>
<path d="M221.961 44.0495H205.281L202.521 52.0295H193.701L208.761 10.0895H218.541L233.601 52.0295H224.721L221.961 44.0495ZM219.681 37.3295L213.621 19.8095L207.561 37.3295H219.681Z" fill="white"/>
<path d="M262.991 30.5495C265.351 30.9895 267.291 32.1695 268.811 34.0895C270.331 36.0095 271.091 38.2095 271.091 40.6895C271.091 42.9295 270.531 44.9095 269.411 46.6295C268.331 48.3095 266.751 49.6295 264.671 50.5895C262.591 51.5495 260.131 52.0295 257.291 52.0295H239.231V10.1495H256.511C259.351 10.1495 261.791 10.6095 263.831 11.5295C265.911 12.4495 267.471 13.7295 268.511 15.3695C269.591 17.0095 270.131 18.8695 270.131 20.9495C270.131 23.3895 269.471 25.4295 268.151 27.0695C266.871 28.7095 265.151 29.8695 262.991 30.5495ZM247.631 27.4295H255.311C257.311 27.4295 258.851 26.9895 259.931 26.1095C261.011 25.1895 261.551 23.8895 261.551 22.2095C261.551 20.5295 261.011 19.2295 259.931 18.3095C258.851 17.3895 257.311 16.9295 255.311 16.9295H247.631V27.4295ZM256.091 45.1895C258.131 45.1895 259.711 44.7095 260.831 43.7495C261.991 42.7895 262.571 41.4295 262.571 39.6695C262.571 37.8695 261.971 36.4695 260.771 35.4695C259.571 34.4295 257.951 33.9095 255.911 33.9095H247.631V45.1895H256.091Z" fill="white"/>
<path d="M312.525 10.1495V52.0295H304.125V34.2095H286.185V52.0295H277.785V10.1495H286.185V27.3695H304.125V10.1495H312.525Z" fill="white"/>
<path d="M344.193 37.3295H332.073L327.033 52.0295H318.213L333.273 10.0895H343.053L358.113 52.0295H349.233L344.193 37.3295ZM344.193 37.3295L338.133 19.8095L332.073 37.3295H344.193Z" fill="white"/>
<path d="M401.362 10.1495L386.002 52.0295H375.802L360.442 10.1495H369.442L380.962 43.4495L392.422 10.1495H401.362Z" fill="white"/>
<path d="M429.799 37.3295H417.679L412.639 52.0295H403.819L418.879 10.0895H428.659L443.719 52.0295H434.839L429.799 37.3295ZM429.799 37.3295L423.739 19.8095L417.679 37.3295H429.799Z" fill="white"/>
<path d="M477.848 10.1495V16.9295H466.688V52.0295H458.288V16.9295H447.128V10.1495H477.848Z" fill="white"/>
<path d="M492.377 10.1495V52.0295H483.977V10.1495H492.377Z" fill="white"/>
<path d="M126.448 68.3055C128.224 68.3055 129.776 68.6495 131.104 69.3375C132.448 70.0095 133.48 70.9855 134.2 72.2655C134.936 73.5295 135.304 75.0095 135.304 76.7055C135.304 78.4015 134.936 79.8735 134.2 81.1215C133.48 82.3695 132.448 83.3295 131.104 84.0015C129.776 84.6575 128.224 84.9855 126.448 84.9855H121V68.3055H126.448ZM126.448 82.7535C128.4 82.7535 129.896 82.2255 130.936 81.1695C131.976 80.1135 132.496 78.6255 132.496 76.7055C132.496 74.7695 131.976 73.2575 130.936 72.1695C129.896 71.0815 128.4 70.5375 126.448 70.5375H123.736V82.7535H126.448Z" fill="white"/>
<path d="M140.752 68.3055V84.9855H138.016V68.3055H140.752Z" fill="white"/>
<path d="M156.416 73.1055C155.984 72.2735 155.384 71.6495 154.616 71.2335C153.848 70.8015 152.96 70.5855 151.952 70.5855C150.848 70.5855 149.864 70.8335 149 71.3295C148.136 71.8255 147.456 72.5295 146.96 73.4415C146.48 74.3535 146.24 75.4095 146.24 76.6095C146.24 77.8095 146.48 78.8735 146.96 79.8015C147.456 80.7135 148.136 81.4175 149 81.9135C149.864 82.4095 150.848 82.6575 151.952 82.6575C153.44 82.6575 154.648 82.2415 155.576 81.4095C156.504 80.5775 157.072 79.4495 157.28 78.0255H151.016V75.8415H160.208V77.9775C160.032 79.2735 159.568 80.4655 158.816 81.5535C158.08 82.6415 157.112 83.5135 155.912 84.1695C154.728 84.8095 153.408 85.1295 151.952 85.1295C150.384 85.1295 148.952 84.7695 147.656 84.0495C146.36 83.3135 145.328 82.2975 144.56 81.0015C143.808 79.7055 143.432 78.2415 143.432 76.6095C143.432 74.9775 143.808 73.5135 144.56 72.2175C145.328 70.9215 146.36 69.9135 147.656 69.1935C148.968 68.4575 150.4 68.0895 151.952 68.0895C153.728 68.0895 155.304 68.5295 156.68 69.4095C158.072 70.2735 159.08 71.5055 159.704 73.1055H156.416Z" fill="white"/>
<path d="M165.642 68.3055V84.9855H162.906V68.3055H165.642Z" fill="white"/>
<path d="M180.01 68.3055V70.5375H175.57V84.9855H172.834V70.5375H168.37V68.3055H180.01Z" fill="white"/>
<path d="M192.837 81.5775H185.853L184.653 84.9855H181.797L187.773 68.2815H190.941L196.917 84.9855H194.037L192.837 81.5775ZM192.069 79.3455L189.357 71.5935L186.621 79.3455H192.069Z" fill="white"/>
<path d="M202.252 82.7775H207.892V84.9855H199.516V68.3055H202.252V82.7775Z" fill="white"/>
<path d="M221.91 85.1535C220.79 85.1535 219.782 84.9615 218.886 84.5775C217.99 84.1775 217.286 83.6175 216.774 82.8975C216.262 82.1775 216.006 81.3375 216.006 80.3775H218.934C218.998 81.0975 219.278 81.6895 219.774 82.1535C220.286 82.6175 220.998 82.8495 221.91 82.8495C222.854 82.8495 223.59 82.6255 224.118 82.1775C224.646 81.7135 224.91 81.1215 224.91 80.4015C224.91 79.8415 224.742 79.3855 224.406 79.0335C224.086 78.6815 223.678 78.4095 223.182 78.2175C222.702 78.0255 222.03 77.8175 221.166 77.5935C220.078 77.3055 219.19 77.0175 218.502 76.7295C217.83 76.4255 217.254 75.9615 216.774 75.3375C216.294 74.7135 216.054 73.8815 216.054 72.8415C216.054 71.8815 216.294 71.0415 216.774 70.3215C217.254 69.6015 217.926 69.0495 218.79 68.6655C219.654 68.2815 220.654 68.0895 221.79 68.0895C223.406 68.0895 224.726 68.4975 225.75 69.3135C226.79 70.1135 227.366 71.2175 227.478 72.6255H224.454C224.406 72.0175 224.118 71.4975 223.59 71.0655C223.062 70.6335 222.366 70.4175 221.502 70.4175C220.718 70.4175 220.078 70.6175 219.582 71.0175C219.086 71.4175 218.838 71.9935 218.838 72.7455C218.838 73.2575 218.99 73.6815 219.294 74.0175C219.614 74.3375 220.014 74.5935 220.494 74.7855C220.974 74.9775 221.63 75.1855 222.462 75.4095C223.566 75.7135 224.462 76.0175 225.15 76.3215C225.854 76.6255 226.446 77.0975 226.926 77.7375C227.422 78.3615 227.67 79.2015 227.67 80.2575C227.67 81.1055 227.438 81.9055 226.974 82.6575C226.526 83.4095 225.862 84.0175 224.982 84.4815C224.118 84.9295 223.094 85.1535 221.91 85.1535Z" fill="white"/>
<path d="M233.634 70.5135V75.4095H239.394V77.6415H233.634V82.7535H240.114V84.9855H230.898V68.2815H240.114V70.5135H233.634Z" fill="white"/>
<path d="M252.148 84.9855L248.308 78.3135H246.22V84.9855H243.484V68.3055H249.244C250.524 68.3055 251.604 68.5295 252.484 68.9775C253.38 69.4255 254.044 70.0255 254.476 70.7775C254.924 71.5295 255.148 72.3695 255.148 73.2975C255.148 74.3855 254.828 75.3775 254.188 76.2735C253.564 77.1535 252.596 77.7535 251.284 78.0735L255.412 84.9855H252.148ZM246.22 76.1295H249.244C250.268 76.1295 251.036 75.8735 251.548 75.3615C252.076 74.8495 252.34 74.1615 252.34 73.2975C252.34 72.4335 252.084 71.7615 251.572 71.2815C251.06 70.7855 250.284 70.5375 249.244 70.5375H246.22V76.1295Z" fill="white"/>
<path d="M273.024 68.3055L266.76 84.9855H263.592L257.304 68.3055H260.232L265.176 82.1775L270.144 68.3055H273.024Z" fill="white"/>
<path d="M278.049 68.3055V84.9855H275.312V68.3055H278.049Z" fill="white"/>
<path d="M280.729 76.6095C280.729 74.9775 281.105 73.5135 281.857 72.2175C282.625 70.9215 283.657 69.9135 284.953 69.1935C286.265 68.4575 287.697 68.0895 289.249 68.0895C291.025 68.0895 292.601 68.5295 293.977 69.4095C295.369 70.2735 296.377 71.5055 297.001 73.1055H293.713C293.281 72.2255 292.681 71.5695 291.913 71.1375C291.145 70.7055 290.257 70.4895 289.249 70.4895C288.145 70.4895 287.161 70.7375 286.297 71.2335C285.433 71.7295 284.753 72.4415 284.257 73.3695C283.777 74.2975 283.537 75.3775 283.537 76.6095C283.537 77.8415 283.777 78.9215 284.257 79.8495C284.753 80.7775 285.433 81.4975 286.297 82.0095C287.161 82.5055 288.145 82.7535 289.249 82.7535C290.257 82.7535 291.145 82.5375 291.913 82.1055C292.681 81.6735 293.281 81.0175 293.713 80.1375H297.001C296.377 81.7375 295.369 82.9695 293.977 83.8335C292.601 84.6975 291.025 85.1295 289.249 85.1295C287.681 85.1295 286.249 84.7695 284.953 84.0495C283.657 83.3135 282.625 82.2975 281.857 81.0015C281.105 79.7055 280.729 78.2415 280.729 76.6095Z" fill="white"/>
<path d="M302.939 70.5135V75.4095H308.699V77.6415H302.939V82.7535H309.419V84.9855H300.203V68.2815H309.419V70.5135H302.939Z" fill="white"/>
<path d="M318.285 85.1535C317.165 85.1535 316.157 84.9615 315.261 84.5775C314.365 84.1775 313.661 83.6175 313.149 82.8975C312.637 82.1775 312.381 81.3375 312.381 80.3775H315.309C315.373 81.0975 315.653 81.6895 316.149 82.1535C316.661 82.6175 317.373 82.8495 318.285 82.8495C319.229 82.8495 319.965 82.6255 320.493 82.1775C321.021 81.7135 321.285 81.1215 321.285 80.4015C321.285 79.8415 321.117 79.3855 320.781 79.0335C320.461 78.6815 320.053 78.4095 319.557 78.2175C319.077 78.0255 318.405 77.8175 317.541 77.5935C316.453 77.3055 315.565 77.0175 314.877 76.7295C314.205 76.4255 313.629 75.9615 313.149 75.3375C312.669 74.7135 312.429 73.8815 312.429 72.8415C312.429 71.8815 312.669 71.0415 313.149 70.3215C313.629 69.6015 314.301 69.0495 315.165 68.6655C316.029 68.2815 317.029 68.0895 318.165 68.0895C319.781 68.0895 321.101 68.4975 322.125 69.3135C323.165 70.1135 323.741 71.2175 323.853 72.6255H320.829C320.781 72.0175 320.493 71.4975 319.965 71.0655C319.437 70.6335 318.741 70.4175 317.877 70.4175C317.093 70.4175 316.453 70.6175 315.957 71.0175C315.461 71.4175 315.213 71.9935 315.213 72.7455C315.213 73.2575 315.365 73.6815 315.669 74.0175C315.989 74.3375 316.389 74.5935 316.869 74.7855C317.349 74.9775 318.005 75.1855 318.837 75.4095C319.941 75.7135 320.837 76.0175 321.525 76.3215C322.229 76.6255 322.821 77.0975 323.301 77.7375C323.797 78.3615 324.045 79.2015 324.045 80.2575C324.045 81.1055 323.813 81.9055 323.349 82.6575C322.901 83.4095 322.237 84.0175 321.357 84.4815C320.493 84.9295 319.469 85.1535 318.285 85.1535Z" fill="white"/>
<path d="M345.172 73.2735C345.172 74.1215 344.972 74.9215 344.572 75.6735C344.172 76.4255 343.532 77.0415 342.652 77.5215C341.772 77.9855 340.644 78.2175 339.268 78.2175H336.244V84.9855H333.508V68.3055H339.268C340.548 68.3055 341.628 68.5295 342.508 68.9775C343.404 69.4095 344.068 70.0015 344.5 70.7535C344.948 71.5055 345.172 72.3455 345.172 73.2735ZM339.268 75.9855C340.308 75.9855 341.084 75.7535 341.596 75.2895C342.108 74.8095 342.364 74.1375 342.364 73.2735C342.364 71.4495 341.332 70.5375 339.268 70.5375H336.244V75.9855H339.268Z" fill="white"/>
<path d="M362.157 68.3055L355.893 84.9855H352.725L346.437 68.3055H349.365L354.309 82.1775L359.277 68.3055H362.157Z" fill="white"/>
<path d="M375.221 68.3055V70.5375H370.781V84.9855H368.045V70.5375H363.581V68.3055H375.221Z" fill="white"/>
<path d="M386.963 82.7775H392.603V84.9855H384.227V68.3055H386.963V82.7775Z" fill="white"/>
<path d="M405.667 68.3055V70.5375H401.227V84.9855H398.491V70.5375H394.027V68.3055H405.667Z" fill="white"/>
<path d="M413.885 68.3055C415.661 68.3055 417.214 68.6495 418.542 69.3375C419.885 70.0095 420.918 70.9855 421.638 72.2655C422.374 73.5295 422.741 75.0095 422.741 76.7055C422.741 78.4015 422.374 79.8735 421.638 81.1215C420.918 82.3695 419.885 83.3295 418.542 84.0015C417.214 84.6575 415.661 84.9855 413.885 84.9855H408.438V68.3055H413.885ZM413.885 82.7535C415.837 82.7535 417.333 82.2255 418.374 81.1695C419.414 80.1135 419.934 78.6255 419.934 76.7055C419.934 74.7695 419.414 73.2575 418.374 72.1695C417.333 71.0815 415.837 70.5375 413.885 70.5375H411.173V82.7535H413.885Z" fill="white"/>
<circle cx="48.4135" cy="44.1058" r="42.2058" fill="black" stroke="white" stroke-width="2.2"/>
<path d="M38.3655 42.2788L47.5001 24.0096" stroke="white"/>
<path d="M28.3174 12.1346L47.5001 23.0961M47.5001 23.0961L82.2116 67.8557L60.2885 53.2403M47.5001 23.0961L76.7308 14.875M60.2885 53.2403L38.3654 41.3653M60.2885 53.2403L21.9231 77.9038L38.3654 41.3653M60.2885 53.2403L89.5193 37.7115M38.3654 41.3653L7.30775 46.8461" stroke="white"/>
<circle cx="23.75" cy="10.3077" r="5.48077" fill="#FF8255"/>
<circle cx="49.3269" cy="23.0962" r="5.48077" fill="#FF8255"/>
<circle cx="38.3655" cy="41.3654" r="5.48077" fill="#FF8255"/>
<circle cx="21.923" cy="77.9039" r="5.48077" fill="#FF8255"/>
<circle cx="60.2885" cy="52.3269" r="5.48077" fill="#FF8255"/>
<circle cx="82.2116" cy="68.7692" r="5.48077" fill="#FF8255"/>
<circle cx="89.5191" cy="37.7115" r="5.48077" fill="#FF8255"/>
<circle cx="76.7308" cy="13.9615" r="5.48077" fill="#FF8255"/>
<circle cx="5.48077" cy="46.8462" r="5.48077" fill="#FF8255"/>
</svg>
